<svg width="32" height="32" viewBox="0 0 32 32" fill="none" xmlns="http://www.w3.org/2000/svg">
<g clip-path="url(#clip0_154_1251)">
<path d="M26.6668 29.0615C24.5 29.0615 24.0078 27.8115 21.3336 27.8115C18.6719 27.8115 18.1719 29.0615 16.0004 29.0615C16.0003 29.0615 16.0002 29.0615 16 29.0615C15.9998 29.0615 15.9998 29.0615 15.9996 29.0615C13.8281 29.0615 13.3281 27.8115 10.6664 27.8115C7.99219 27.8115 7.5 29.0615 5.33319 29.0615C3.07031 29.0615 2.75 27.8115 0 27.8115V29.6865C2.26562 29.6865 2.60156 30.9365 5.33319 30.9365C8.29688 30.9365 8.23438 29.6865 10.6664 29.6865C12.8516 29.6865 13.3047 30.9365 15.9996 30.9365C15.9997 30.9365 15.9998 30.9365 16 30.9365C16.0002 30.9365 16.0002 30.9365 16.0004 30.9365C18.6953 30.9365 19.1484 29.6865 21.3336 29.6865C23.7656 29.6865 23.7031 30.9365 26.6668 30.9365C29.3984 30.9365 29.7344 29.6865 32 29.6865V27.8115C29.25 27.8115 28.9297 29.0615 26.6668 29.0615Z" fill="#A06AF9"/>
<path d="M27.6452 2.43422C25.8175 0.606594 22.8437 0.606531 21.0161 2.43422L5.71549 17.7348V23.0382L2.97643 25.7772L4.30224 27.103L7.0413 24.364H12.3445L27.6452 9.06334C29.3653 7.34316 29.6049 4.39391 27.6452 2.43422ZM26.3194 7.73747L11.568 22.4889H8.9163L24.9935 6.41166L23.6677 5.08584L7.59049 21.1631V18.5114L22.3419 3.76003C23.4385 2.66341 25.2229 2.66353 26.3194 3.76003C27.3832 4.82391 27.4457 6.61109 26.3194 7.73747Z" fill="#A06AF9"/>
</g>
<defs>
<clipPath id="clip0_154_1251">
<rect width="32" height="32" fill="white"/>
</clipPath>
</defs>
</svg>
